HIERARCHY
ROOT Hips
{
	OFFSET 0 0 0
	CHANNELS 6 Xposition Yposition Zposition Yrotation Xrotation Zrotation
	JOINT Spine
	{
		OFFSET -0 8.07728 -2.57463
		CHANNELS 3 Yrotation Xrotation Zrotation
		JOINT Spine1
		{
			OFFSET -0 7.85748 0
			CHANNELS 3 Yrotation Xrotation Zrotation
			JOINT Spine2
			{
				OFFSET -0 7.85748 0
				CHANNELS 3 Yrotation Xrotation Zrotation
				JOINT Spine3
				{
					OFFSET -0 7.85748 0
					CHANNELS 3 Yrotation Xrotation Zrotation
					JOINT Neck
					{
						OFFSET -0 14.0969 3.57463
						CHANNELS 3 Yrotation Xrotation Zrotation
						JOINT Head
						{
							OFFSET -0 10.0966 0
							CHANNELS 3 Yrotation Xrotation Zrotation
							End Site
							{
								OFFSET 0 15 0
							}
						}
					}
					JOINT LeftShoulder
					{
						OFFSET 1.68277 2.40696 3.36553
						CHANNELS 3 Yrotation Xrotation Zrotation
						JOINT LeftArm
						{
							OFFSET 18.0611 0 0
							CHANNELS 3 Yrotation Xrotation Zrotation
							JOINT LeftForeArm
							{
								OFFSET 22.6236 0 0
								CHANNELS 3 Yrotation Xrotation Zrotation
								JOINT LeftHand
								{
									OFFSET 24.2874 0 0
									CHANNELS 3 Yrotation Xrotation Zrotation
									JOINT LeftHandThumb1
									{
										OFFSET 4.73728 0 2.48881
										CHANNELS 3 Yrotation Xrotation Zrotation
										JOINT LeftHandThumb2
										{
											OFFSET 3 0 1
											CHANNELS 3 Yrotation Xrotation Zrotation
											JOINT LeftHandThumb3
											{
												OFFSET 2.1 0 0
												CHANNELS 3 Yrotation Xrotation Zrotation
												JOINT LeftHandThumb4
												{
													OFFSET 1.305 0 0
													CHANNELS 3 Yrotation Xrotation Zrotation
													End Site
													{
														OFFSET -0 0 0
													}
												}
											}
										}
									}
									JOINT LeftHandIndex1
									{
										OFFSET 8.45149 0 3.3332
										CHANNELS 3 Yrotation Xrotation Zrotation
										JOINT LeftHandIndex2
										{
											OFFSET 3.5 0 0
											CHANNELS 3 Yrotation Xrotation Zrotation
											JOINT LeftHandIndex3
											{
												OFFSET 2.45 0 0
												CHANNELS 3 Yrotation Xrotation Zrotation
												JOINT LeftHandIndex4
												{
													OFFSET 1.5225 0 0
													CHANNELS 3 Yrotation Xrotation Zrotation
													End Site
													{
														OFFSET -0 0 0
													}
												}
											}
										}
									}
									JOINT LeftHandMiddle1
									{
										OFFSET 8.76388 0 0.837268
										CHANNELS 3 Yrotation Xrotation Zrotation
										JOINT LeftHandMiddle2
										{
											OFFSET 4.6 0 0
											CHANNELS 3 Yrotation Xrotation Zrotation
											JOINT LeftHandMiddle3
											{
												OFFSET 3.22 0 0
												CHANNELS 3 Yrotation Xrotation Zrotation
												JOINT LeftHandMiddle4
												{
													OFFSET 2.001 0 0
													CHANNELS 3 Yrotation Xrotation Zrotation
													End Site
													{
														OFFSET -0 0 0
													}
												}
											}
										}
									}
									JOINT LeftHandRing1
									{
										OFFSET 8.77626 0 -1.65867
										CHANNELS 3 Yrotation Xrotation Zrotation
										JOINT LeftHandRing2
										{
											OFFSET 3.75 0 0
											CHANNELS 3 Yrotation Xrotation Zrotation
											JOINT LeftHandRing3
											{
												OFFSET 2.625 0 0
												CHANNELS 3 Yrotation Xrotation Zrotation
												JOINT LeftHandRing4
												{
													OFFSET 1.63125 0 0
													CHANNELS 3 Yrotation Xrotation Zrotation
													End Site
													{
														OFFSET -0 0 0
													}
												}
											}
										}
									}
									JOINT LeftHandPinky1
									{
										OFFSET 8.48864 0 -4.1546
										CHANNELS 3 Yrotation Xrotation Zrotation
										JOINT LeftHandPinky2
										{
											OFFSET 2.875 0 0
											CHANNELS 3 Yrotation Xrotation Zrotation
											JOINT LeftHandPinky3
											{
												OFFSET 2.0125 0 0
												CHANNELS 3 Yrotation Xrotation Zrotation
												JOINT LeftHandPinky4
												{
													OFFSET 1.25062 0 0
													CHANNELS 3 Yrotation Xrotation Zrotation
													End Site
													{
														OFFSET -0 0 0
													}
												}
											}
										}
									}
								}
							}
						}
					}
					JOINT RightShoulder
					{
						OFFSET -1.68277 2.40696 3.36553
						CHANNELS 3 Yrotation Xrotation Zrotation
						JOINT RightArm
						{
							OFFSET -18.0611 0 0
							CHANNELS 3 Yrotation Xrotation Zrotation
							JOINT RightForeArm
							{
								OFFSET -22.6236 0 0
								CHANNELS 3 Yrotation Xrotation Zrotation
								JOINT RightHand
								{
									OFFSET -24.2874 0 0
									CHANNELS 3 Yrotation Xrotation Zrotation
									JOINT RightHandThumb1
									{
										OFFSET -4.51754 0 2.6169
										CHANNELS 3 Yrotation Xrotation Zrotation
										JOINT RightHandThumb2
										{
											OFFSET -3 0 1
											CHANNELS 3 Yrotation Xrotation Zrotation
											JOINT RightHandThumb3
											{
												OFFSET -2.1 0 0
												CHANNELS 3 Yrotation Xrotation Zrotation
												JOINT RightHandThumb4
												{
													OFFSET -1.305 0 0
													CHANNELS 3 Yrotation Xrotation Zrotation
													End Site
													{
														OFFSET -0 0 0
													}
												}
											}
										}
									}
									JOINT RightHandIndex1
									{
										OFFSET -8.60414 0 3.42357
										CHANNELS 3 Yrotation Xrotation Zrotation
										JOINT RightHandIndex2
										{
											OFFSET -3.5 0 0
											CHANNELS 3 Yrotation Xrotation Zrotation
											JOINT RightHandIndex3
											{
												OFFSET -2.45 0 0
												CHANNELS 3 Yrotation Xrotation Zrotation
												JOINT RightHandIndex4
												{
													OFFSET -1.5225 0 0
													CHANNELS 3 Yrotation Xrotation Zrotation
													End Site
													{
														OFFSET -0 0 0
													}
												}
											}
										}
									}
									JOINT RightHandMiddle1
									{
										OFFSET -8.52211 0 1.19563
										CHANNELS 3 Yrotation Xrotation Zrotation
										JOINT RightHandMiddle2
										{
											OFFSET -4.6 0 0
											CHANNELS 3 Yrotation Xrotation Zrotation
											JOINT RightHandMiddle3
											{
												OFFSET -3.22 0 0
												CHANNELS 3 Yrotation Xrotation Zrotation
												JOINT RightHandMiddle4
												{
													OFFSET -2.001 0 0
													CHANNELS 3 Yrotation Xrotation Zrotation
													End Site
													{
														OFFSET -0 0 0
													}
												}
											}
										}
									}
									JOINT RightHandRing1
									{
										OFFSET -8.14008 0 -1.0323
										CHANNELS 3 Yrotation Xrotation Zrotation
										JOINT RightHandRing2
										{
											OFFSET -3.75 0 0
											CHANNELS 3 Yrotation Xrotation Zrotation
											JOINT RightHandRing3
											{
												OFFSET -2.625 0 0
												CHANNELS 3 Yrotation Xrotation Zrotation
												JOINT RightHandRing4
												{
													OFFSET -1.63125 0 0
													CHANNELS 3 Yrotation Xrotation Zrotation
													End Site
													{
														OFFSET -0 0 0
													}
												}
											}
										}
									}
									JOINT RightHandPinky1
									{
										OFFSET -7.45805 0 -3.26023
										CHANNELS 3 Yrotation Xrotation Zrotation
										JOINT RightHandPinky2
										{
											OFFSET -2.875 0 0
											CHANNELS 3 Yrotation Xrotation Zrotation
											JOINT RightHandPinky3
											{
												OFFSET -2.0125 0 0
												CHANNELS 3 Yrotation Xrotation Zrotation
												JOINT RightHandPinky4
												{
													OFFSET -1.25062 0 0
													CHANNELS 3 Yrotation Xrotation Zrotation
													End Site
													{
														OFFSET -0 0 0
													}
												}
											}
										}
									}
								}
							}
						}
					}
				}
			}
		}
	}
	JOINT LeftUpLeg
	{
		OFFSET 10.0966 -3.36553 3
		CHANNELS 3 Yrotation Xrotation Zrotation
		JOINT LeftLeg
		{
			OFFSET -0 -44.1253 2.35587
			CHANNELS 3 Yrotation Xrotation Zrotation
			JOINT LeftFoot
			{
				OFFSET -0 -37.5861 -2.35587
				CHANNELS 3 Yrotation Xrotation Zrotation
				JOINT LeftToeBase
				{
					OFFSET -0 -9.60866 9.35537
					CHANNELS 3 Yrotation Xrotation Zrotation
					End Site
					{
						OFFSET 0 0 5
					}
				}
			}
		}
	}
	JOINT RightUpLeg
	{
		OFFSET -10.0966 -3.36553 3
		CHANNELS 3 Yrotation Xrotation Zrotation
		JOINT RightLeg
		{
			OFFSET -0 -44.1253 2.35587
			CHANNELS 3 Yrotation Xrotation Zrotation
			JOINT RightFoot
			{
				OFFSET -0 -37.5861 -2.35587
				CHANNELS 3 Yrotation Xrotation Zrotation
				JOINT RightToeBase
				{
					OFFSET -0 -9.60866 9.35537
					CHANNELS 3 Yrotation Xrotation Zrotation
					End Site
					{
						OFFSET 0 0 5
					}
				}
			}
		}
	}
}
MOTION
Frames: 5
Frame Time: 0.0047619
0 95.099306 0 0 0 0 0 0 0 0 0 0 0 0 0 0 0 0 0 0 0 0 0 0 0 0 0 0 0 0 0 0 0 0 0 0 0 0 0 0 0 0 0 0 0 0 0 0 0 0 0 0 0 0 0 0 0 0 0 0 0 0 0 0 0 0 0 0 0 0 0 0 0 0 0 0 0 0 0 0 0 0 0 0 0 0 0 0 0 0 0 0 0 0 0 0 0 0 0 0 0 0 0 0 0 0 0 0 0 0 0 0 0 0 0 0 0 0 0 0 0 0 0 0 0 0 0 0 0 0 0 0 0 0 0 0 0 0 0 0 0 0 0 0 0 0 0 0 0 0 0 0 0 0 0 0 0 0 0 0 0 0 0 0 0 0 0 0 0 0 0 0 0 0 0 0 0 0 0 0 0 0 0 0 0 0 0 0 0 0 0 0
-38.407877 95.018518 -14.898688 10.966962 -0.935537 -1.231251 -0.497938 -0.007146 1.078307 -0.602142 0.074894 0.773031 -1.060504 0.107916 0.424031 -1.171395 0.108099 0.231572 3.590744 3.254995 -2.574705 1.477293 -3.840473 2.143331 9.258149 -0.667487 4.215572 -14.405665 1.562881 -3.928519 -6.451673 4.105519 -0.557328 20.988793 1.052976 -26.586792 -43.907550 -1.997615 -1.779019 -50.496045 -2.392046 -1.895438 61.620921 6.123651 10.104841 0.000007 0.000001 12.500000 0.000007 0.000001 12.500000 0.000004 -0.000000 9.999998 -0.000000 0.000001 5.000002 0.000072 -0.000004 4.969318 0.000072 -0.000004 4.969318 0.000065 -0.000001 3.975453 0.000020 0.000001 1.987730 -0.000003 0.000002 12.496503 -0.000003 0.000002 12.496503 0.000000 -0.000001 9.997201 -0.000006 -0.000004 4.998603 0.000075 -0.000005 8.922158 0.000075 -0.000005 8.922158 0.000055 0.000006 7.137727 0.000027 0.000005 3.568860 -175.071236 -0.002591 -179.939806 -1.924204 -1.062372 -10.838543 9.107991 2.596170 -2.087411 9.136906 0.661781 1.747419 -12.395886 11.043012 33.608553 -1.935561 3.997262 -3.611018 -2.248457 4.586236 -4.165961 -11.151352 14.466100 1.298615 -0.000014 -0.000009 -5.772932 -0.000014 -0.000009 -5.772932 -0.000017 -0.000007 -4.618345 -0.000006 -0.000004 -2.309175 -0.000012 -0.000006 -7.689964 -0.000012 -0.000006 -7.689964 -0.000009 -0.000006 -6.151973 -0.000005 -0.000004 -3.075983 0.000016 0.000012 1.454171 0.000016 0.000012 1.454171 0.000013 0.000010 1.163337 0.000006 0.000003 0.581669 0.000092 0.000069 2.863282 0.000092 0.000069 2.863282 0.000069 0.000053 2.290624 0.000033 0.000030 1.145314 -43.907550 -1.997615 -1.779019 12.380339 6.400505 7.917558 0.000000 -1.811875 0.000000 0.629838 -0.830756 -18.146757 0.000000 -8.865167 0.000000 -12.593199 9.381449 -4.750287 0.000000 -3.076056 0.000000 -5.144978 2.396221 3.378011 0.000000 -5.609756 0.000000
-38.407916 95.016217 -14.897565 10.965913 -0.935035 -1.229845 -0.499880 -0.005938 1.075049 -0.604315 0.073977 0.770643 -1.056761 0.090406 0.424401 -1.170950 0.132844 0.235562 3.593378 3.236926 -2.558145 1.477603 -3.862229 2.095675 9.265784 -0.662985 4.221427 -14.409707 1.578444 -3.912223 -6.485579 4.065615 -0.564204 21.011468 1.093583 -26.553391 -43.924663 -1.987121 -1.778163 -50.515683 -2.380024 -1.895105 61.666900 6.127117 10.109843 -0.000000 -0.000001 12.499998 -0.000000 -0.000001 12.499998 0.000003 0.000000 10.000002 0.000010 -0.000000 4.999999 -0.000031 0.000002 5.234033 -0.000031 0.000002 5.234033 -0.000010 -0.000001 4.187228 0.000000 -0.000001 2.093613 -0.000000 -0.000000 12.499178 -0.000000 -0.000000 12.499178 -0.000010 -0.000001 9.999343 0.000003 0.000003 4.999670 -0.000007 0.000001 9.070307 -0.000007 0.000001 9.070307 0.000003 -0.000002 7.256248 -0.000003 -0.000000 3.628119 -175.071246 -0.002591 -179.939806 -1.926386 -1.078418 -10.831701 9.098361 2.582033 -2.105926 9.131500 0.718752 1.767892 -12.388199 11.003886 33.623648 -1.801067 3.896834 -3.582267 -2.092980 4.471578 -4.131741 -11.339336 14.339949 1.423183 -0.000007 -0.000000 -5.715855 -0.000007 -0.000000 -5.715855 -0.000008 -0.000005 -4.572683 -0.000002 -0.000002 -2.286342 -0.000005 -0.000002 -7.682572 -0.000005 -0.000002 -7.682572 -0.000003 -0.000002 -6.146056 -0.000001 -0.000000 -3.073027 0.000004 0.000003 1.439777 0.000004 0.000003 1.439777 0.000002 0.000002 1.151822 0.000002 0.000002 0.575910 0.000027 0.000020 2.781899 0.000027 0.000020 2.781899 0.000020 0.000017 2.225518 0.000007 0.000007 1.112760 -43.924663 -1.987121 -1.778163 12.401669 6.400277 7.914033 0.000000 -1.808498 0.000000 0.616173 -0.854389 -18.095417 0.000000 -8.877937 0.000000 -12.590893 9.383702 -4.749874 0.000000 -3.072256 0.000000 -5.142205 2.345536 3.366265 0.000000 -5.564522 0.000000
-38.408203 95.015863 -14.900151 10.972343 -0.938044 -1.233000 -0.499811 0.000538 1.080772 -0.605141 0.081691 0.772835 -1.062936 0.095463 0.421620 -1.175491 0.106554 0.230950 3.602407 3.245748 -2.583760 1.479448 -3.901820 2.127750 9.267542 -0.675414 4.233144 -14.405496 1.564499 -3.902887 -6.430725 4.119087 -0.546853 20.953080 1.070193 -26.596068 -43.924663 -1.987121 -1.778163 -50.515683 -2.380024 -1.895105 61.666900 6.127117 10.109843 -0.000000 -0.000001 12.499998 -0.000000 -0.000001 12.499998 0.000003 0.000000 10.000002 0.000010 -0.000000 4.999999 -0.000031 0.000002 5.234033 -0.000031 0.000002 5.234033 -0.000010 -0.000001 4.187228 0.000000 -0.000001 2.093613 -0.000000 -0.000000 12.499178 -0.000000 -0.000000 12.499178 -0.000010 -0.000001 9.999343 0.000003 0.000003 4.999670 -0.000007 0.000001 9.070307 -0.000007 0.000001 9.070307 0.000003 -0.000002 7.256248 -0.000003 -0.000000 3.628119 -175.071246 -0.002591 -179.939806 -1.919087 -1.066644 -10.829967 9.074660 2.591954 -2.105085 9.150641 0.704099 1.763012 -12.399873 10.980859 33.630265 -1.801067 3.896834 -3.582267 -2.092980 4.471578 -4.131741 -11.339336 14.339949 1.423183 -0.000007 -0.000000 -5.715855 -0.000007 -0.000000 -5.715855 -0.000008 -0.000005 -4.572683 -0.000002 -0.000002 -2.286342 -0.000005 -0.000002 -7.682572 -0.000005 -0.000002 -7.682572 -0.000003 -0.000002 -6.146056 -0.000001 -0.000000 -3.073027 0.000004 0.000003 1.439777 0.000004 0.000003 1.439777 0.000002 0.000002 1.151822 0.000002 0.000002 0.575910 0.000027 0.000020 2.781899 0.000027 0.000020 2.781899 0.000020 0.000017 2.225518 0.000007 0.000007 1.112760 -43.924663 -1.987121 -1.778163 12.384815 6.400201 7.916460 0.000000 -1.811358 0.000000 0.652548 -0.842293 -18.093549 0.000000 -8.886808 0.000000 -12.593572 9.382723 -4.748389 0.000000 -3.067827 0.000000 -5.157242 2.355404 3.379630 0.000000 -5.587432 0.000000
-38.410760 95.018451 -14.899551 10.971553 -0.938788 -1.229341 -0.505804 -0.000979 1.077783 -0.611388 0.079134 0.769647 -1.059363 0.100447 0.418846 -1.172798 0.121111 0.230008 3.608596 3.216755 -2.591283 1.480229 -3.923079 2.130649 9.253976 -0.714049 4.236283 -14.373799 1.586613 -3.891968 -6.441965 4.103031 -0.534694 20.950144 1.078273 -26.611276 -43.924663 -1.987121 -1.778163 -50.515683 -2.380024 -1.895105 61.666900 6.127117 10.109843 -0.000000 -0.000001 12.499998 -0.000000 -0.000001 12.499998 0.000003 0.000000 10.000002 0.000010 -0.000000 4.999999 -0.000031 0.000002 5.234033 -0.000031 0.000002 5.234033 -0.000010 -0.000001 4.187228 0.000000 -0.000001 2.093613 -0.000000 -0.000000 12.499178 -0.000000 -0.000000 12.499178 -0.000010 -0.000001 9.999343 0.000003 0.000003 4.999670 -0.000007 0.000001 9.070307 -0.000007 0.000001 9.070307 0.000003 -0.000002 7.256248 -0.000003 -0.000000 3.628119 -175.071246 -0.002591 -179.939806 -1.917104 -1.085217 -10.822671 9.079634 2.574628 -2.095919 9.146510 0.702814 1.740929 -12.410423 10.979574 33.646077 -1.801067 3.896834 -3.582267 -2.092980 4.471578 -4.131741 -11.339336 14.339949 1.423183 -0.000007 -0.000000 -5.715855 -0.000007 -0.000000 -5.715855 -0.000008 -0.000005 -4.572683 -0.000002 -0.000002 -2.286342 -0.000005 -0.000002 -7.682572 -0.000005 -0.000002 -7.682572 -0.000003 -0.000002 -6.146056 -0.000001 -0.000000 -3.073027 0.000004 0.000003 1.439777 0.000004 0.000003 1.439777 0.000002 0.000002 1.151822 0.000002 0.000002 0.575910 0.000027 0.000020 2.781899 0.000027 0.000020 2.781899 0.000020 0.000017 2.225518 0.000007 0.000007 1.112760 -43.924663 -1.987121 -1.778163 12.377364 6.401256 7.915974 0.000000 -1.804303 0.000000 0.630776 -0.844879 -18.115812 0.000000 -8.844656 0.000000 -12.582355 9.383744 -4.747596 0.000000 -3.066922 0.000000 -5.166034 2.357552 3.371495 0.000000 -5.568557 0.000000
